<svg id="visual" viewBox="0 0 900 600" width="900" height="600" xmlns="http://www.w3.org/2000/svg" xmlns:xlink="http://www.w3.org/1999/xlink" version="1.1"><path d="M0 163L82 163L82 199L164 199L164 115L245 115L245 115L327 115L327 145L409 145L409 139L491 139L491 181L573 181L573 133L655 133L655 139L736 139L736 103L818 103L818 169L900 169L900 79L900 0L900 0L818 0L818 0L736 0L736 0L655 0L655 0L573 0L573 0L491 0L491 0L409 0L409 0L327 0L327 0L245 0L245 0L164 0L164 0L82 0L82 0L0 0Z" fill="#e5e5e7"></path><path d="M0 229L82 229L82 241L164 241L164 181L245 181L245 193L327 193L327 187L409 187L409 211L491 211L491 223L573 223L573 211L655 211L655 187L736 187L736 133L818 133L818 241L900 241L900 163L900 77L900 167L818 167L818 101L736 101L736 137L655 137L655 131L573 131L573 179L491 179L491 137L409 137L409 143L327 143L327 113L245 113L245 113L164 113L164 197L82 197L82 161L0 161Z" fill="#cfcce2"></path><path d="M0 367L82 367L82 319L164 319L164 229L245 229L245 247L327 247L327 319L409 319L409 307L491 307L491 313L573 313L573 283L655 283L655 259L736 259L736 187L818 187L818 355L900 355L900 235L900 161L900 239L818 239L818 131L736 131L736 185L655 185L655 209L573 209L573 221L491 221L491 209L409 209L409 185L327 185L327 191L245 191L245 179L164 179L164 239L82 239L82 227L0 227Z" fill="#bfb3db"></path><path d="M0 445L82 445L82 403L164 403L164 313L245 313L245 301L327 301L327 421L409 421L409 379L491 379L491 367L573 367L573 373L655 373L655 361L736 361L736 295L818 295L818 451L900 451L900 343L900 233L900 353L818 353L818 185L736 185L736 257L655 257L655 281L573 281L573 311L491 311L491 305L409 305L409 317L327 317L327 245L245 245L245 227L164 227L164 317L82 317L82 365L0 365Z" fill="#b399d0"></path><path d="M0 547L82 547L82 553L164 553L164 535L245 535L245 529L327 529L327 541L409 541L409 559L491 559L491 511L573 511L573 511L655 511L655 529L736 529L736 571L818 571L818 529L900 529L900 547L900 341L900 449L818 449L818 293L736 293L736 359L655 359L655 371L573 371L573 365L491 365L491 377L409 377L409 419L327 419L327 299L245 299L245 311L164 311L164 401L82 401L82 443L0 443Z" fill="#aa7dc3"></path><path d="M0 601L82 601L82 601L164 601L164 601L245 601L245 601L327 601L327 601L409 601L409 601L491 601L491 601L573 601L573 601L655 601L655 601L736 601L736 601L818 601L818 601L900 601L900 601L900 545L900 527L818 527L818 569L736 569L736 527L655 527L655 509L573 509L573 509L491 509L491 557L409 557L409 539L327 539L327 527L245 527L245 533L164 533L164 551L82 551L82 545L0 545Z" fill="#a560b2"></path></svg>